<svg width="29" height="27" viewBox="0 0 29 27" fill="none" xmlns="http://www.w3.org/2000/svg">
<path d="M29 9.13572C29 9.01128 28.9704 8.89277 28.9052 8.7861L24.5913 1.20131C24.4669 0.982059 24.2299 0.839844 23.9751 0.839844H5.019C4.7642 0.839844 4.52718 0.976133 4.40274 1.20131L0.09481 8.7861C0.0355537 8.89277 0 9.01128 0 9.13572C0 10.8364 1.02513 12.2941 2.48876 12.94V25.449C2.48876 25.84 2.80875 26.16 3.19984 26.16H7.12853C7.13445 26.16 7.14038 26.16 7.1463 26.16H12.6571C12.6631 26.16 12.669 26.16 12.6749 26.16H25.7942C26.1853 26.16 26.5053 25.84 26.5053 25.449V13.0288C26.5053 12.9992 26.5053 12.9755 26.4994 12.9518C27.9689 12.3059 29 10.8423 29 9.13572ZM5.4338 2.26792H23.5603L26.932 8.19947H2.06804L5.4338 2.26792ZM20.6389 9.61569C20.4138 10.8956 19.2938 11.8674 17.9487 11.8674C16.6036 11.8674 15.4837 10.8956 15.2585 9.61569H20.6389ZM13.7474 9.61569C13.5223 10.8956 12.4023 11.8674 11.0572 11.8674C9.7121 11.8674 8.59215 10.8956 8.36105 9.61569H13.7474ZM1.46955 9.61569H6.85595C6.63077 10.8956 5.5049 11.8674 4.15979 11.8674C2.81467 11.8734 1.69473 10.8956 1.46955 9.61569ZM11.9461 24.7379H7.85738V17.0642C7.85738 16.5072 8.30772 16.0509 8.87066 16.0509H10.9387C11.4957 16.0509 11.952 16.5013 11.952 17.0642V24.7379H11.9461ZM25.0832 24.7379H13.3682V17.0642C13.3682 15.725 12.2779 14.6288 10.9328 14.6288H8.86473C7.52554 14.6288 6.4293 15.7191 6.4293 17.0642V24.7438H3.91091V13.2896C3.99387 13.2955 4.07683 13.2955 4.15979 13.2955C5.59379 13.2955 6.86187 12.5667 7.6085 11.4586C8.35513 12.5667 9.62321 13.2955 11.0572 13.2955C12.4912 13.2955 13.7534 12.5667 14.5059 11.4586C15.2526 12.5667 16.5206 13.2955 17.9487 13.2955C19.3827 13.2955 20.6449 12.5667 21.3915 11.4586C22.1381 12.5667 23.4062 13.2955 24.8402 13.2955C24.9232 13.2955 25.0002 13.2896 25.0832 13.2896V24.7379ZM24.8402 11.8734C23.4951 11.8734 22.3752 10.9016 22.15 9.62162H27.5364C27.3053 10.8956 26.1853 11.8734 24.8402 11.8734Z" fill="black"/>
</svg>
