<svg width="29" height="29" viewBox="0 0 29 29" fill="none" xmlns="http://www.w3.org/2000/svg">
<path d="M28.5165 22.7171C28.7834 22.7171 28.9998 22.5007 28.9998 22.2338C28.9998 21.9668 28.7834 21.7505 28.5165 21.7505H28.0332C28.0332 21.4835 27.8168 21.2672 27.5499 21.2672C27.2829 21.2672 27.0666 21.4835 27.0666 21.7505H19.3333C19.3333 21.4835 19.1169 21.2672 18.85 21.2672C18.5831 21.2672 18.3667 21.4835 18.3667 21.7505H17.8834C17.6165 21.7505 17.4001 21.9669 17.4001 22.2338C17.4001 22.5007 17.6165 22.7171 17.8834 22.7171H18.3667V24.1671H17.8834C17.6165 24.1671 17.4001 24.3834 17.4001 24.6504C17.4001 24.9173 17.6165 25.1337 17.8834 25.1337H18.3667V25.617H17.8834C17.6165 25.617 17.4001 25.8334 17.4001 26.1003C17.4001 26.3672 17.6165 26.5836 17.8834 26.5836H18.3667V28.0336H10.1501V24.0348C10.8651 24.4377 11.6717 24.6497 12.4924 24.6503C15.2372 24.6108 17.4322 22.3575 17.4 19.6127C17.4149 17.7043 16.3492 15.9516 14.648 15.0867C15.208 14.3242 15.5081 13.4018 15.504 12.4558C15.5208 10.3679 14.0562 8.56063 12.01 8.14456C12.5277 7.00281 12.4388 5.67756 11.773 4.61534C11.1072 3.55306 9.95336 2.89519 8.70009 2.86342C8.68576 2.86342 8.67194 2.86546 8.65767 2.86563C8.40035 1.20229 6.95904 -0.0186323 5.27605 0.00096501C3.59306 0.0205623 2.18064 1.27479 1.96213 2.94368C0.738256 3.17828 -0.106637 4.30507 0.0111164 5.5457C0.12887 6.78634 1.1707 7.73397 2.41694 7.73403H5.23425C5.27787 7.87303 5.32958 8.00936 5.38911 8.14229C3.34306 8.55978 1.87915 10.3677 1.89631 12.4559C1.89218 13.4019 2.19225 14.3243 2.75225 15.0868C1.05108 15.9517 -0.014598 17.7044 0.000298191 19.6127C-0.0319864 22.3575 2.16314 24.6108 4.9079 24.6504C5.72855 24.6497 6.53521 24.4378 7.25017 24.0349V28.0336H0.483661C0.216718 28.0336 0.000354826 28.25 0.000354826 28.5169C0.000354826 28.7839 0.216718 29.0002 0.483661 29.0002H28.5165C28.7834 29.0002 28.9998 28.7839 28.9998 28.5169C28.9998 28.25 28.7834 28.0336 28.5165 28.0336H28.0332V26.5837H28.5165C28.7834 26.5837 28.9998 26.3673 28.9998 26.1003C28.9998 25.8334 28.7834 25.617 28.5165 25.617H28.0332V25.1337H28.5165C28.7834 25.1337 28.9998 24.9174 28.9998 24.6504C28.9998 24.3835 28.7834 24.1671 28.5165 24.1671H28.0332V22.7171H28.5165V22.7171ZM5.05658 6.60028C5.05658 6.65641 5.06292 6.71157 5.06541 6.76736H2.41694C1.61617 6.76736 0.966967 6.11822 0.966967 5.31739C0.966967 4.51656 1.61617 3.86741 2.41694 3.86741C2.54512 3.86747 2.66808 3.81655 2.75876 3.72587C2.84939 3.63525 2.9003 3.51228 2.9003 3.38405C2.89781 2.12269 3.86765 1.07247 5.12522 0.974714C6.38279 0.876897 7.50329 1.76461 7.69587 3.01119C6.11947 3.49269 5.04632 4.95206 5.05658 6.60028ZM9.18351 28.0337H8.21684V23.3244C8.39005 23.1631 8.55158 22.9896 8.70015 22.8054C8.84871 22.9896 9.01025 23.1631 9.18345 23.3243V28.0337H9.18351ZM9.24219 21.8919L12.4252 18.7089C12.611 18.5196 12.6096 18.216 12.4221 18.0285C12.2346 17.841 11.931 17.8396 11.7418 18.0255L9.18351 20.5836V15.6673L11.4585 13.3923C11.6452 13.2033 11.6443 12.8989 11.4563 12.711C11.2685 12.5231 10.9641 12.5222 10.775 12.7089L9.18345 14.3004V12.084C9.18345 11.817 8.96703 11.6007 8.70015 11.6007C8.4332 11.6007 8.21684 11.8171 8.21684 12.084V14.3004L6.62527 12.7089C6.4362 12.5222 6.13188 12.5231 5.94395 12.711C5.75602 12.8989 5.75511 13.2032 5.9418 13.3923L8.21678 15.6674V20.5837L5.65854 18.0255C5.46948 17.8388 5.16515 17.8397 4.97722 18.0276C4.78935 18.2155 4.78839 18.5199 4.97507 18.7089L8.15805 21.8919C7.45045 23.0037 6.22562 23.6789 4.90778 23.6838C2.69668 23.6448 0.934003 21.824 0.966854 19.6128C0.94635 17.8641 2.05162 16.3002 3.7068 15.7358C3.8668 15.6831 3.98779 15.5508 4.02607 15.3867C4.06436 15.2226 4.01435 15.0505 3.89422 14.9324C3.22983 14.2802 2.85782 13.3868 2.86292 12.4559C2.83132 10.6116 4.28984 9.0854 6.13363 9.0334C6.33318 9.05102 6.52388 8.94771 6.61813 8.77093C6.70054 8.60849 6.6844 8.41348 6.57639 8.26684C6.21814 7.78495 6.02421 7.20071 6.02319 6.60022C5.99963 5.09689 7.19687 3.85795 8.70009 3.83009C10.2034 3.85795 11.4006 5.09689 11.377 6.60022C11.376 7.20071 11.182 7.78495 10.8238 8.26684C10.718 8.41473 10.7047 8.60962 10.7896 8.77048C10.875 8.93366 11.0441 9.03572 11.2283 9.03527C13.0855 9.06869 14.5654 10.5986 14.5373 12.4559C14.5424 13.3868 14.1703 14.2802 13.506 14.9324C13.3858 15.0505 13.3358 15.2226 13.3741 15.3867C13.4124 15.5508 13.5334 15.6831 13.6934 15.7358C15.5497 16.3849 16.6813 18.2632 16.3874 20.2076C16.0936 22.1521 14.4576 23.6122 12.4924 23.6838C11.1746 23.6789 9.94979 23.0037 9.24219 21.8919ZM27.0665 28.0337H19.3333V26.5837H27.0665V28.0337ZM27.0665 25.617H19.3333V25.1337H27.0665V25.617ZM27.0665 24.1671H19.3333V22.7171H27.0665V24.1671Z" fill="black"/>
</svg>
