<svg width="27" height="29" viewBox="0 0 27 29" fill="none" xmlns="http://www.w3.org/2000/svg">
<path d="M25.7346 27.9813H25.7293V14.2492C25.7293 13.2498 25.3422 12.3395 24.7107 11.659V7.59475C24.967 7.5682 25.1668 7.35155 25.1668 7.08822C25.1668 6.80892 24.9419 6.58233 24.6634 6.57921C24.4538 5.44652 23.5592 4.55176 22.4266 4.34217V3.57594C22.4266 3.29467 22.1985 3.06661 21.9173 3.06661C21.636 3.06661 21.4079 3.29467 21.4079 3.57594V4.3421C20.2752 4.55169 19.3806 5.44646 19.1711 6.57915C18.8925 6.58233 18.6676 6.80886 18.6676 7.08816C18.6676 7.35148 18.8674 7.56814 19.1238 7.59469V11.659C18.9198 11.8787 18.7418 12.1225 18.5937 12.3855C18.4418 12.0623 18.2599 11.7559 18.0517 11.4698C18.0588 11.4358 18.0628 11.4006 18.0628 11.3644V6.58036C18.3342 6.56915 18.5509 6.34626 18.5509 6.07211C18.5509 5.79083 18.3228 5.56278 18.0416 5.56278H18.0335C17.7981 3.45899 16.1237 1.78457 14.02 1.54919V0.50933C14.02 0.228053 13.7919 0 13.5106 0C13.2293 0 13.0013 0.228053 13.0013 0.50933V1.54919C10.8975 1.78463 9.22308 3.45899 8.98771 5.56278H8.97969C8.69841 5.56278 8.47036 5.79083 8.47036 6.07211C8.47036 6.34626 8.68708 6.56915 8.95849 6.58036V11.3644C8.95849 11.4006 8.96237 11.4358 8.96956 11.4698C8.76354 11.7529 8.5833 12.0559 8.43235 12.3753C8.28541 12.1162 8.10937 11.8759 7.90812 11.659V7.59475C8.16444 7.5682 8.36429 7.35155 8.36429 7.08822C8.36429 6.80892 8.13935 6.58233 7.86081 6.57921C7.65129 5.44646 6.75665 4.55176 5.62396 4.34217V3.57594C5.62396 3.29467 5.39591 3.06661 5.11463 3.06661C4.83335 3.06661 4.6053 3.29467 4.6053 3.57594V4.3421C3.47261 4.55176 2.57804 5.44646 2.36851 6.57915C2.08991 6.58233 1.86504 6.80886 1.86504 7.08816C1.86504 7.35148 2.06489 7.56814 2.32121 7.59469V11.659C1.68977 12.3395 1.30261 13.2498 1.30261 14.2492V27.9813H1.2655C0.984217 27.9813 0.756165 28.2094 0.756165 28.4907C0.756165 28.7719 0.984217 29 1.2655 29H25.7346C26.0158 29 26.2439 28.7719 26.2439 28.4907C26.2439 28.2094 26.0158 27.9813 25.7346 27.9813ZM23.692 7.59749V10.8769C23.1615 10.5966 22.5578 10.4371 21.9173 10.4371C21.2766 10.4371 20.6729 10.5966 20.1424 10.8769V7.59743H23.692V7.59749ZM21.9172 5.3134C22.7188 5.3134 23.3977 5.84775 23.6171 6.57889H20.2172C20.4367 5.84775 21.1156 5.3134 21.9172 5.3134ZM19.1238 14.2492C19.1238 12.7089 20.3769 11.4558 21.9172 11.4558C23.4575 11.4558 24.7106 12.7089 24.7106 14.2492V27.9813H19.1238V14.7653C19.1238 14.6314 19.1188 14.4987 19.1096 14.3672C19.1186 14.3292 19.1238 14.2898 19.1238 14.2492ZM18.1052 27.9813H17.0736V20.8484C17.0736 19.8725 16.6789 18.9872 16.0411 18.343V15.7574H16.0493C16.3305 15.7574 16.5586 15.5294 16.5586 15.2481C16.5586 14.9668 16.3305 14.7387 16.0493 14.7387H15.9721C15.7453 13.7821 14.9768 13.0327 14.0093 12.8351V12.0311C14.0093 11.7499 13.7812 11.5218 13.4999 11.5218C13.2187 11.5218 12.9906 11.7499 12.9906 12.0311V12.8351C12.0231 13.0327 11.2546 13.782 11.0278 14.7387H10.9506C10.6693 14.7387 10.4413 14.9668 10.4413 15.2481C10.4413 15.5294 10.6693 15.7574 10.9506 15.7574H10.9588V18.3653C10.3336 19.0076 9.94748 19.8836 9.94748 20.8485V27.9813H8.91602V14.7653C8.91602 12.2318 10.9772 10.1707 13.5106 10.1707C16.0441 10.1707 18.1052 12.2318 18.1052 14.7653V27.9813H18.1052ZM14.0175 27.9813H13.0036V23.3772C13.0036 23.0976 13.231 22.8702 13.5106 22.8702C13.7901 22.8702 14.0175 23.0976 14.0175 23.3772V27.9813ZM13.5106 21.8515C12.6694 21.8515 11.985 22.536 11.985 23.3772V27.9813H10.9663V20.8484C10.9663 19.4454 12.1077 18.3041 13.5106 18.3041C14.9136 18.3041 16.055 19.4455 16.055 20.8484V27.9813H15.0363V23.3772C15.0362 22.536 14.3519 21.8515 13.5106 21.8515ZM13.5 13.8024C14.1319 13.8024 14.675 14.1894 14.905 14.7387H12.095C12.325 14.1894 12.8681 13.8024 13.5 13.8024ZM15.0225 15.7574V17.623C14.5632 17.4069 14.051 17.2854 13.5106 17.2854C12.9621 17.2854 12.4422 17.4102 11.9775 17.6326V15.7574H15.0225ZM17.0441 6.58144V10.4072C16.0786 9.62291 14.8486 9.15203 13.5106 9.15203C12.1726 9.15203 10.9426 9.62291 9.97715 10.4072V6.58138H17.0441V6.58144ZM13.5106 2.53863C15.286 2.53863 16.7592 3.85493 17.0069 5.56278H10.0143C10.262 3.85493 11.7352 2.53863 13.5106 2.53863ZM6.88939 7.59749V10.877C6.35893 10.5967 5.75518 10.4371 5.11457 10.4371C4.47402 10.4371 3.87027 10.5967 3.33981 10.877V7.59755H6.88939V7.59749ZM5.11463 5.3134C5.91625 5.3134 6.59513 5.84775 6.81459 6.57889H3.41468C3.63414 5.84775 4.31301 5.3134 5.11463 5.3134ZM2.32127 14.2492C2.32127 12.7089 3.57435 11.4558 5.11463 11.4558C6.65491 11.4558 7.90799 12.7089 7.90799 14.2492C7.90799 14.2755 7.9106 14.3012 7.91449 14.3264C7.90322 14.4713 7.89742 14.6176 7.89742 14.7653V27.9813H2.32127V14.2492Z" fill="black"/>
</svg>
